<svg width="513" height="363" viewBox="0 0 513 363" fill="none" xmlns="http://www.w3.org/2000/svg">
<g clip-path="url(#clip0_8_480)">
<path opacity="0.1" d="M6.41835 156.842H53.4849V220.993H9.86405C9.74811 221.652 9.63681 222.315 9.51623 222.978H53.4849V274.715C53.4061 274.692 53.3365 274.664 53.2623 274.636C52.0194 274.144 50.7858 273.625 49.5522 273.068L48.7639 272.711C47.5272 272.127 46.2905 271.509 45.0538 270.856C44.6225 270.629 44.1912 270.393 43.7646 270.151C36.8991 266.306 30.6621 261.432 25.27 255.701C25.1123 255.548 24.9639 255.385 24.8063 255.237C24.055 254.421 23.3176 253.595 22.6034 252.751L21.815 251.824C20.971 250.79 20.1548 249.728 19.3618 248.652C19.2458 248.494 19.1345 248.336 19.0139 248.188C15.7887 243.716 13.1108 238.874 11.0374 233.765C10.9724 233.612 10.9168 233.445 10.8565 233.301C10.2196 231.663 9.65536 230.009 9.16378 228.339C8.95045 227.639 8.7464 226.948 8.57017 226.22C8.50525 226.007 8.4496 225.798 8.39858 225.589C5.76445 215.308 5.45374 204.627 5.45374 194.021C5.45374 192.783 5.45374 191.54 5.45374 190.311C5.45374 186.022 5.50475 181.704 5.57895 177.391C5.57895 176.273 5.62532 175.16 5.64851 174.038C5.71344 171.191 5.80619 168.343 5.92677 165.496C5.95459 164.703 5.99169 163.914 6.03343 163.126C6.03343 162.671 6.05662 162.217 6.10299 161.762C6.2143 160.112 6.30705 158.474 6.41835 156.842Z" fill="#3A8EF6"/>
<path opacity="0.1" d="M53.4849 85.4147H27.6676C31.8643 78.846 36.4498 72.5339 41.3994 66.5121C45.2347 61.8003 49.2833 57.2091 53.4849 52.7849V85.4147Z" fill="#3A8EF6"/>
<path opacity="0.1" d="M53.4849 87.3994V154.857H6.56677C6.56677 154.663 6.59923 154.463 6.61315 154.268C6.65489 153.735 6.69662 153.202 6.743 152.673C6.79401 152.052 6.84966 151.426 6.90995 150.818C6.97024 150.21 7.03517 149.468 7.10473 148.796C7.17429 148.124 7.23922 147.442 7.31806 146.769C7.39689 146.097 7.46646 145.425 7.54993 144.757C7.63341 144.089 7.70761 143.412 7.79573 142.744C7.86529 142.187 7.93949 141.636 8.01369 141.079C8.12035 140.295 8.23165 139.507 8.35223 138.728C8.35223 138.612 8.38469 138.491 8.40324 138.38C9.24969 132.677 10.403 127.023 11.8582 121.444C13.3815 115.591 15.3266 109.856 17.6784 104.285C20.1778 98.4562 23.1044 92.8201 26.4341 87.4226L53.4849 87.3994Z" fill="#3A8EF6"/>
<path opacity="0.1" d="M64.7217 156.838V220.993H165.25V156.838H64.7217ZM64.7217 222.974V278.068C65.2967 278.188 65.8672 278.304 66.4329 278.402C67.2028 278.55 67.968 278.685 68.7517 278.801C68.9001 278.824 69.0532 278.847 69.2155 278.861C69.5216 278.912 69.8369 278.954 70.143 278.995C70.9175 279.102 71.6873 279.19 72.4618 279.26C72.8281 279.297 73.1991 279.329 73.5701 279.357L74.4652 279.427C74.9521 279.464 75.4344 279.492 75.9121 279.505C76.2089 279.505 76.5057 279.533 76.8118 279.543C77.0437 279.543 77.2755 279.543 77.5167 279.543C77.7578 279.543 78.101 279.543 78.3932 279.543C78.792 279.543 79.1909 279.543 79.585 279.543H80.1184C80.5172 279.543 80.916 279.543 81.3102 279.505H81.338C81.6117 279.505 81.8899 279.505 82.1682 279.468C82.2454 279.473 82.3228 279.473 82.4 279.468C82.6319 279.468 82.8638 279.468 83.0864 279.436H83.2487L84.8023 279.315C85.3124 279.269 85.8272 279.209 86.3466 279.153L87.404 279.028C91.7057 278.425 95.9595 277.52 100.134 276.319C109.511 273.704 118.684 270.045 128.057 267.364C140.175 263.909 153.563 262.212 165.273 266.437V222.974H64.7217ZM165.25 85.4145V0.0046545C154.244 -0.114588 143.268 1.17271 132.588 3.83528C107.132 10.2305 84.2922 24.1014 64.7217 41.8169V85.4099H69.7673V87.3901H64.7217V154.857H165.25V87.3948H90.4833V85.4145H165.25ZM294.373 56.5643C288.076 56.3417 281.815 54.3475 276.152 51.2682C265.324 45.3785 256.675 36.2843 247.01 28.6091C226.929 12.6234 202.026 2.97733 176.477 0.584349V85.4145H319.987L320.344 85.0389L294.373 56.5643ZM307.447 54.2455L321.308 69.4567V50.2572C316.666 50.8323 312.599 52.2003 307.465 54.227L307.447 54.2455ZM321.308 291.749V222.974H291.772C291.693 222.682 291.614 222.385 291.521 222.088C291.609 222.385 291.684 222.682 291.767 222.974H176.496V272.711C177.591 273.523 178.671 274.376 179.742 275.244C180.897 276.171 182.038 277.15 183.183 278.11L184.338 279.065C184.89 279.529 185.447 279.992 186.008 280.428C187.121 281.331 188.245 282.222 189.379 283.1C189.94 283.563 190.515 283.981 191.086 284.417C200.142 291.34 209.694 297.589 219.667 303.111C221.902 304.347 224.158 305.555 226.433 306.733C227.95 307.507 229.475 308.277 231.006 309.023C233.306 310.146 235.625 311.228 237.962 312.27C259.511 321.943 282.298 328.581 305.671 331.993C310.861 332.76 316.073 333.363 321.304 333.802V291.744H321.767L321.308 291.749ZM176.496 87.3948V154.857H321.327V87.3948H176.496ZM176.496 156.838V220.993H321.327V156.838H176.496ZM332.568 50.1737V71.59L350.261 52.1772C344.399 51.2311 338.501 50.5556 332.568 50.1505V50.1737ZM332.568 156.861V220.993H473.434V156.838L332.568 156.861ZM472.919 296.841L473.416 222.974H332.568V334.539C341.642 334.921 350.729 334.812 359.791 334.215H359.948C364.277 333.943 368.585 333.547 372.873 333.027H372.971C395.848 330.365 418.218 324.396 439.381 315.307M500.596 167.402C500.068 166.154 499.516 164.916 498.955 163.692C497.906 161.373 496.798 159.119 495.657 156.865H484.666V220.993H512.454C512.441 202.833 507.845 184.283 500.61 167.379L500.596 167.402ZM484.666 222.997V286.531C492.494 279.028 499.108 270.444 503.87 260.631C509.598 248.814 512.218 236.019 512.431 222.988L484.666 222.997ZM484.666 138.167V154.862H494.628C491.614 149.115 488.294 143.534 484.68 138.144L484.666 138.167ZM389.133 62.7601C388.4 62.4818 387.667 62.1989 386.93 61.9253C379.153 59.0534 371.206 56.6651 363.134 54.7742L336.06 84.487L335.541 85.0389L335.889 85.4192H432.248C418.828 76.1814 404.36 68.5675 389.147 62.7369L389.133 62.7601ZM435.072 87.4179H334.544L332.568 89.2266V154.857H349.885H349.913H473.453V123.067C462.277 109.551 449.378 97.5582 435.086 87.3948L435.072 87.4179Z" fill="#3A8EF6"/>
<path opacity="0.1" d="M53.4849 121.425V154.857H6.56677C6.56677 154.662 6.59923 154.463 6.61315 154.268C6.65489 153.735 6.69662 153.202 6.743 152.673C6.79401 152.051 6.84966 151.425 6.90995 150.818C6.97024 150.21 7.03517 149.468 7.10473 148.796C7.17429 148.123 7.23922 147.442 7.31806 146.769C7.39689 146.097 7.46646 145.424 7.54993 144.757C7.63341 144.089 7.70761 143.412 7.79573 142.744C7.86529 142.187 7.93949 141.636 8.01369 141.079C8.12035 140.295 8.23165 139.507 8.35223 138.728C8.35223 138.612 8.38469 138.491 8.40324 138.38C9.24969 132.677 10.403 127.023 11.8582 121.444L53.4849 121.425Z" fill="#3A8EF6"/>
<path opacity="0.1" d="M6.41835 156.842H53.4849V220.993H9.86405C9.74811 221.652 9.63681 222.315 9.51623 222.978H53.4849V274.715C53.4061 274.692 53.3365 274.664 53.2623 274.636C52.0194 274.144 50.7858 273.625 49.5522 273.068L48.7639 272.711C47.5272 272.127 46.2905 271.509 45.0538 270.856C44.6225 270.629 44.1912 270.393 43.7646 270.151C36.8991 266.306 30.6621 261.432 25.27 255.701C25.1123 255.548 24.9639 255.385 24.8063 255.237C24.055 254.421 23.3176 253.595 22.6034 252.751L21.815 251.824C20.971 250.79 20.1548 249.728 19.3618 248.652C19.2458 248.494 19.1345 248.336 19.0139 248.188C15.7887 243.716 13.1108 238.874 11.0374 233.765C10.9724 233.612 10.9168 233.445 10.8565 233.301C10.2196 231.663 9.65536 230.009 9.16378 228.339C8.95045 227.639 8.7464 226.948 8.57017 226.22C8.50525 226.007 8.4496 225.798 8.39858 225.589C5.76445 215.308 5.45374 204.627 5.45374 194.021C5.45374 192.783 5.45374 191.54 5.45374 190.311C5.45374 186.022 5.50475 181.704 5.57895 177.391C5.57895 176.273 5.62532 175.16 5.64851 174.038C5.71344 171.191 5.80619 168.343 5.92677 165.496C5.95459 164.703 5.99169 163.914 6.03343 163.126C6.03343 162.671 6.05662 162.217 6.10299 161.762C6.2143 160.112 6.30705 158.474 6.41835 156.842Z" fill="#3A8EF6"/>
<path opacity="0.1" d="M100.111 97.0549V154.857H64.7217V97.0549H69.7673V77.4844H90.4787V97.0549H100.111Z" fill="#3A8EF6"/>
<path opacity="0.1" d="M100.111 156.837H64.7262V220.989H100.111V156.837Z" fill="#3A8EF6"/>
<path opacity="0.1" d="M64.7217 222.978H100.111V276.31C95.9364 277.51 91.6824 278.413 87.3808 279.014L86.3234 279.144C85.804 279.204 85.2892 279.255 84.7791 279.306C84.269 279.357 83.7403 279.394 83.2255 279.427H83.0632C82.8406 279.427 82.5995 279.454 82.3815 279.459H82.145C81.8667 279.459 81.5885 279.487 81.3102 279.496C80.916 279.519 80.5218 279.524 80.1184 279.529C79.9468 279.529 79.7845 279.529 79.6129 279.529C79.214 279.529 78.8198 279.529 78.421 279.529H77.5445C77.308 279.529 77.0808 279.529 76.835 279.529L75.9399 279.496C75.4762 279.496 74.9753 279.445 74.493 279.413L73.6026 279.348L72.4942 279.246C71.7151 279.176 70.9406 279.088 70.1754 278.981L69.2479 278.852L68.7842 278.787C68.0097 278.666 67.2445 278.536 66.4654 278.388C65.895 278.29 65.3292 278.17 64.7541 278.054L64.7217 222.978Z" fill="#3A8EF6"/>
<path opacity="0.1" d="M321.327 90.2285H292.147V154.853H321.327V90.2285Z" fill="#3A8EF6"/>
<path opacity="0.1" d="M321.332 156.837V220.993H176.496V193.321H253.642V209.645H292.147V156.837H321.332Z" fill="#3A8EF6"/>
<path opacity="0.1" d="M321.791 291.763H321.327V333.848C316.102 333.406 310.892 332.805 305.698 332.044C282.314 328.621 259.518 321.969 237.962 312.279C231.739 309.478 225.642 306.42 219.672 303.106C209.699 297.581 200.145 291.333 191.086 284.412C188.81 282.668 186.564 280.884 184.347 279.06C182.812 277.794 181.287 276.496 179.742 275.234C178.671 274.367 177.591 273.514 176.496 272.698V222.978H291.763C291.684 222.681 291.605 222.385 291.521 222.093C291.609 222.385 291.693 222.681 291.772 222.978H321.327V291.735C321.485 291.739 321.638 291.753 321.791 291.763Z" fill="#3A8EF6"/>
<path opacity="0.1" d="M397.429 85.4145H378.415V79.5063H386.939V61.9067C387.678 62.1757 388.414 62.4524 389.146 62.7369V79.5063H397.429V85.4145Z" fill="#3A8EF6"/>
<path opacity="0.1" d="M443.239 154.857H349.894C349.894 154.857 349.894 154.857 349.927 154.88L349.885 154.857H332.568V90.233H337.475V138H359.897V109.711H378.42V87.3994H397.434V109.729H415.956V138.018H443.239V154.857Z" fill="#3A8EF6"/>
<path opacity="0.1" d="M332.568 156.837V220.993H443.239V156.837H332.568ZM473.281 296.511L473.434 245.73H443.239V223.006H332.568V334.539C341.642 334.92 350.729 334.812 359.791 334.215H359.949C364.277 333.943 368.585 333.547 372.873 333.027H372.971C395.848 330.365 418.218 324.396 439.381 315.307" fill="#3A8EF6"/>
<path opacity="0.1" d="M486.632 222.978H512.45C512.222 236.005 509.607 248.8 503.884 260.617C499.121 270.434 492.504 279.018 484.685 286.517V245.707H486.632V222.978Z" fill="#3A8EF6"/>
<path opacity="0.1" d="M512.464 220.993H486.633V167.379H500.61C507.845 184.283 512.441 202.833 512.464 220.993Z" fill="#3A8EF6"/>
<path opacity="0.1" d="M321.331 108.194H305.698V128.456H321.331V108.194Z" fill="#3A8EF6"/>
<path opacity="0.1" d="M321.331 150.192H305.698V154.857H321.331V150.192Z" fill="#3A8EF6"/>
<path opacity="0.1" d="M321.331 156.837H305.698V170.449H321.331V156.837Z" fill="#3A8EF6"/>
<path opacity="0.1" d="M321.331 192.189H305.698V212.451H321.331V192.189Z" fill="#3A8EF6"/>
<path opacity="0.1" d="M321.331 234.187H305.698V254.449H321.331V234.187Z" fill="#3A8EF6"/>
<path opacity="0.1" d="M321.327 291.735C321.484 291.735 321.638 291.735 321.791 291.762H321.327V296.469H305.698V276.185H321.327V291.735Z" fill="#3A8EF6"/>
<path opacity="0.1" d="M321.327 318.174V333.825C316.102 333.383 310.892 332.782 305.698 332.021V318.174H321.327Z" fill="#3A8EF6"/>
<path opacity="0.1" d="M243.495 219.505H176.496V220.994H243.495V219.505Z" fill="#3A8EF6"/>
<path opacity="0.1" d="M243.495 222.974H176.496V228.678H243.495V222.974Z" fill="#3A8EF6"/>
<path opacity="0.1" d="M243.495 247.376H176.496V256.55H243.495V247.376Z" fill="#3A8EF6"/>
<path opacity="0.1" d="M243.49 275.248V284.421H191.086C188.81 282.684 186.563 280.9 184.343 279.07C182.808 277.804 181.287 276.505 179.738 275.248H243.49Z" fill="#3A8EF6"/>
<path opacity="0.1" d="M243.49 303.115V312.279H237.957C231.74 309.475 225.645 306.416 219.672 303.101L243.49 303.115Z" fill="#3A8EF6"/>
<path opacity="0.1" d="M372.985 163.056H359.795V176.246H372.985V163.056Z" fill="#3A8EF6"/>
<path opacity="0.1" d="M87.4135 101.604H74.2242V114.794H87.4135V101.604Z" fill="#3A8EF6"/>
<path opacity="0.1" d="M87.4135 132.24H74.2242V145.429H87.4135V132.24Z" fill="#3A8EF6"/>
<path opacity="0.1" d="M87.4135 162.875H74.2242V176.065H87.4135V162.875Z" fill="#3A8EF6"/>
<path opacity="0.1" d="M87.4135 193.507H74.2242V206.696H87.4135V193.507Z" fill="#3A8EF6"/>
<path opacity="0.1" d="M87.4135 224.142H74.2242V237.332H87.4135V224.142Z" fill="#3A8EF6"/>
<path opacity="0.1" d="M87.4135 254.778H74.2242V267.967H87.4135V254.778Z" fill="#3A8EF6"/>
<path opacity="0.1" d="M423.335 163.056H410.145V176.246H423.335V163.056Z" fill="#3A8EF6"/>
<path opacity="0.1" d="M372.985 195.589H359.795V208.778H372.985V195.589Z" fill="#3A8EF6"/>
<path opacity="0.1" d="M423.335 195.589H410.145V208.778H423.335V195.589Z" fill="#3A8EF6"/>
<path opacity="0.1" d="M372.985 228.117H359.795V241.306H372.985V228.117Z" fill="#3A8EF6"/>
<path opacity="0.1" d="M423.335 228.117H410.145V241.306H423.335V228.117Z" fill="#3A8EF6"/>
<path opacity="0.1" d="M372.985 260.649H359.795V273.838H372.985V260.649Z" fill="#3A8EF6"/>
<path opacity="0.1" d="M423.335 260.649H410.145V273.838H423.335V260.649Z" fill="#3A8EF6"/>
<path opacity="0.1" d="M372.985 293.182H359.795V306.371H372.985V293.182Z" fill="#3A8EF6"/>
<path opacity="0.1" d="M423.335 293.182H410.145V306.371H423.335V293.182Z" fill="#3A8EF6"/>
<path opacity="0.1" d="M359.795 334.215V325.709H372.98V333.004L359.795 334.215Z" fill="#3A8EF6"/>
<path opacity="0.1" d="M8.34753 138.371V145.916H53.4849V138.371H8.34753ZM12.846 145.443H9.16374V138.834H12.8738L12.846 145.443ZM17.3398 145.443H13.6297V138.834H17.3398V145.443ZM21.8243 145.443H18.1142V138.834H21.8243V145.443ZM26.3181 145.443H22.6127V138.834H26.3227L26.3181 145.443ZM30.8072 145.443H27.0972V138.834H30.8072V145.443ZM35.301 145.443H31.591V138.834H35.301V145.443ZM39.7948 145.443H36.0848V138.834H39.7948V145.443ZM44.284 145.443H40.5739V138.834H44.284V145.443ZM48.7731 145.443H45.0631V138.834H48.7731V145.443ZM53.2623 145.443H49.5522V138.834H53.2623V145.443Z" fill="#3A8EF6"/>
<path opacity="0.1" d="M8.34753 160.325V167.87H53.4849V160.325H8.34753ZM12.846 167.393H9.16374V160.803H12.8738L12.846 167.393ZM17.3398 167.393H13.6297V160.803H17.3398V167.393ZM21.8243 167.393H18.1142V160.803H21.8243V167.393ZM26.3181 167.393H22.6127V160.803H26.3227L26.3181 167.393ZM30.8072 167.393H27.0972V160.803H30.8072V167.393ZM35.301 167.393H31.591V160.803H35.301V167.393ZM39.7948 167.393H36.0848V160.803H39.7948V167.393ZM44.284 167.393H40.5739V160.803H44.284V167.393ZM48.7731 167.393H45.0631V160.803H48.7731V167.393ZM53.2623 167.393H49.5522V160.803H53.2623V167.393Z" fill="#3A8EF6"/>
<path opacity="0.1" d="M8.34753 182.288V189.848H53.4849V182.288H8.34753ZM12.846 189.356H9.16374V182.761H12.8738L12.846 189.356ZM17.3398 189.356H13.6297V182.761H17.3398V189.356ZM21.8243 189.356H18.1142V182.761H21.8243V189.356ZM26.3181 189.356H22.6127V182.761H26.3227L26.3181 189.356ZM30.8072 189.356H27.0972V182.761H30.8072V189.356ZM35.301 189.356H31.591V182.761H35.301V189.356ZM39.7948 189.356H36.0848V182.761H39.7948V189.356ZM44.284 189.356H40.5739V182.761H44.284V189.356ZM48.7731 189.356H45.0631V182.761H48.7731V189.356ZM53.2623 189.356H49.5522V182.761H53.2623V189.356Z" fill="#3A8EF6"/>
<path opacity="0.1" d="M8.34753 204.252V211.788H53.4849V204.252H8.34753ZM12.846 211.319H9.16374V204.72H12.8738L12.846 211.319ZM17.3398 211.319H13.6297V204.72H17.3398V211.319ZM21.8243 211.319H18.1142V204.72H21.8243V211.319ZM26.3181 211.319H22.6127V204.72H26.3227L26.3181 211.319ZM30.8072 211.319H27.0972V204.72H30.8072V211.319ZM35.301 211.319H31.591V204.72H35.301V211.319ZM39.7948 211.319H36.0848V204.72H39.7948V211.319ZM44.284 211.319H40.5739V204.72H44.284V211.319ZM48.7731 211.319H45.0631V204.72H48.7731V211.319ZM53.2623 211.319H49.5522V204.72H53.2623V211.319Z" fill="#3A8EF6"/>
<path opacity="0.1" d="M8.54224 226.211C8.7231 226.92 8.92715 227.63 9.14048 228.33V226.684H12.8505V233.278H10.8656C10.9259 233.431 10.9862 233.598 11.0465 233.742H53.4848V226.211H8.54224ZM17.3536 233.278H13.6435V226.684H17.3536V233.278ZM21.8381 233.278H18.1281V226.684H21.8381V233.278ZM26.3319 233.278H22.6126V226.684H26.3226L26.3319 233.278ZM30.8211 233.278H27.111V226.684H30.8211V233.278ZM35.3148 233.278H31.6048V226.684H35.3148V233.278ZM39.8086 233.278H36.0986V226.684H39.8086V233.278ZM44.2978 233.278H40.5877V226.684H44.2978V233.278ZM48.7869 233.278H45.0769V226.684H48.7869V233.278ZM53.2761 233.278H49.566V226.684H53.2761V233.278Z" fill="#3A8EF6"/>
<path opacity="0.1" d="M19.0232 248.174C19.1391 248.322 19.2504 248.489 19.371 248.638H21.8243V251.805C22.0886 252.121 22.3483 252.436 22.6173 252.733V248.619H26.3273V255.237H24.8248C24.9732 255.39 25.1169 255.552 25.2885 255.701H53.4988V248.174H19.0232ZM30.8072 255.237H27.0972V248.647H30.8072V255.237ZM35.301 255.237H31.591V248.647H35.301V255.237ZM39.7948 255.237H36.0848V248.647H39.7948V255.237ZM44.284 255.237H40.5739V248.647H44.284V255.237ZM48.7731 255.237H45.0631V248.647H48.7731V255.237ZM53.2623 255.237H49.5522V248.647H53.2623V255.237Z" fill="#3A8EF6"/>
<path opacity="0.1" d="M43.783 270.133C44.205 270.374 44.6363 270.597 45.0722 270.838V270.606H48.7822V272.693L49.5706 273.059V270.606H53.2807V274.617C53.3518 274.653 53.4264 274.681 53.5033 274.701V270.133H43.783Z" fill="#3A8EF6"/>
<path opacity="0.1" d="M61.5543 352.728C86.5111 352.728 106.743 349.478 106.743 345.47C106.743 341.462 86.5111 338.212 61.5543 338.212C36.5975 338.212 16.366 341.462 16.366 345.47C16.366 349.478 36.5975 352.728 61.5543 352.728Z" fill="#3A8EF6"/>
<path d="M63.0105 206.436H60.1028V271.904H63.0105V206.436Z" fill="#535461"/>
<path d="M81.2824 271.705L81.1015 274.654L80.8418 278.828L80.7351 280.563L80.4801 284.737L80.3688 286.471L80.1091 290.645L77.1781 337.98C77.0507 340.017 76.1521 341.928 74.665 343.326C73.178 344.723 71.2143 345.502 69.1737 345.502H53.9347C51.8946 345.502 49.9314 344.723 48.4451 343.326C46.9589 341.928 46.0612 340.017 45.9349 337.98L43.0179 290.612L42.7582 286.439L42.6515 284.704L42.3918 280.53L42.2852 278.796L42.0255 274.622L41.84 271.673C41.8077 271.105 41.8918 270.537 42.0871 270.003C42.2824 269.469 42.5847 268.98 42.9756 268.567C43.3664 268.154 43.8375 267.825 44.3599 267.601C44.8824 267.377 45.4452 267.261 46.0138 267.262H77.1828C77.7492 267.267 78.3087 267.388 78.8266 267.617C79.3445 267.847 79.8099 268.18 80.194 268.596C80.5782 269.013 80.8729 269.503 81.0601 270.038C81.2473 270.573 81.3229 271.14 81.2824 271.705Z" fill="#3F3D56"/>
<path d="M81.1016 274.655L80.8419 278.814H42.2667L42.007 274.655H81.1016Z" fill="#9D9CB5"/>
<path d="M80.7353 280.549L80.4802 284.713H42.6331L42.3734 280.549H80.7353Z" fill="#9D9CB5"/>
<path d="M80.3686 286.452L80.1136 290.612H42.9992L42.7395 286.452H80.3686Z" fill="#9D9CB5"/>
<path d="M37.5686 230.974C54.5004 243.226 61.568 262.388 61.568 262.388C61.568 262.388 41.1628 261.688 24.2264 249.436C7.29005 237.183 0.236328 218.026 0.236328 218.026C0.236328 218.026 20.6323 218.721 37.5686 230.974Z" fill="#3A8EF6"/>
<path d="M0.222412 218.026C0.222412 218.026 21.4068 229.782 28.2008 239.516C34.9948 249.25 61.568 262.388 61.568 262.388" stroke="#535461" stroke-width="0.927511" stroke-miterlimit="10"/>
<path d="M48.4995 206.292C57.7143 212.956 61.5681 223.386 61.5681 223.386C61.5681 223.386 50.4612 223.006 41.2417 216.342C32.0223 209.678 28.1777 199.243 28.1777 199.243C28.1777 199.243 39.28 199.623 48.4995 206.292Z" fill="#3A8EF6"/>
<path d="M28.1777 199.243C28.1777 199.243 39.7067 205.643 43.4028 210.939C47.099 216.235 61.5681 223.386 61.5681 223.386" stroke="#535461" stroke-width="0.927511" stroke-miterlimit="10"/>
<path d="M74.9475 222.858C64.3599 234.493 62.12 249.7 62.12 249.7C62.12 249.7 77.0483 246.036 87.6265 234.396C98.2048 222.756 100.454 207.554 100.454 207.554C100.454 207.554 85.535 211.222 74.9475 222.858Z" fill="#3A8EF6"/>
<path d="M100.463 207.559C100.463 207.559 86.6712 219.486 83.1652 227.704C79.6592 235.922 62.12 249.7 62.12 249.7" stroke="#535461" stroke-width="0.927511" stroke-miterlimit="10"/>
<path d="M197.464 81.6676L205.11 36.6946" stroke="#E43131" stroke-width="2" stroke-linecap="round" stroke-linejoin="round"/>
<path d="M170.099 101.142L121.391 94.9445" stroke="#E43131" stroke-width="2" stroke-linecap="round" stroke-linejoin="round"/>
<path d="M176.007 91.9069L159.868 85.6086" stroke="#E43131" stroke-width="2" stroke-linecap="round" stroke-linejoin="round"/>
<path d="M189.613 83.0379L187.008 68.1109" stroke="#E43131" stroke-width="2" stroke-linecap="round" stroke-linejoin="round"/>
<path d="M205.388 82.6774L214.737 70.9621" stroke="#E43131" stroke-width="2" stroke-linecap="round" stroke-linejoin="round"/>
<path d="M181.947 86.7686L160.123 60.9535" stroke="#E43131" stroke-width="2" stroke-linecap="round" stroke-linejoin="round"/>
<path fill-rule="evenodd" clip-rule="evenodd" d="M378.09 229.121C362.376 222.169 343.94 227.756 334.73 242.262V242.262C324.948 257.667 328.759 278.015 343.454 288.835L381.463 316.82C400.659 330.955 427.885 325.208 439.731 304.521V304.521C451.489 283.988 442.892 257.791 421.254 248.218L378.09 229.121Z" stroke="url(#paint0_linear_8_480)" stroke-width="2.8" stroke-linejoin="round"/>
<path d="M387.722 233.824L350.452 293.961" stroke="url(#paint1_linear_8_480)" stroke-width="2.1" stroke-linejoin="round"/>
<path d="M333.806 243.562L347.886 252.729" stroke="url(#paint2_linear_8_480)" stroke-width="2.1" stroke-linejoin="round"/>
<rect width="10.5" height="24.5" rx="5.25" transform="matrix(-0.536047 0.844188 0.844188 0.536047 350.542 248.412)" fill="url(#paint3_linear_8_480)"/>
<path d="M333.806 243.562C333.806 243.562 289.347 220.601 314.202 196.34C333.652 177.355 265.678 185.183 253 170.127" stroke="url(#paint4_linear_8_480)" stroke-width="2.1"/>
<g filter="url(#filter0_di_8_480)">
<circle cx="57" cy="38" r="25" fill="url(#paint5_linear_8_480)"/>
</g>
<rect x="51.5654" y="23.8696" width="10.8696" height="28.2609" rx="0.782609" fill="white"/>
<rect x="71.1306" y="32.5649" width="10.8696" height="28.2609" rx="0.782609" transform="rotate(90 71.1306 32.5649)" fill="white"/>
<path d="M168.874 128.243C168.874 128.242 168.874 128.242 168.874 128.242C168.879 117.988 172.931 108.151 180.149 100.868C187.367 93.5848 197.167 89.4445 207.42 89.3462H207.765C221.423 89.3462 233.509 96.574 240.463 107.247L240.882 107.89L241.301 107.247C248.254 96.574 260.34 89.3462 273.998 89.3462H274.344C284.596 89.4457 294.395 93.5865 301.611 100.869C308.828 108.152 312.88 117.989 312.885 128.243C312.885 141.022 307.282 159.22 296.319 174.202L296.319 174.202C285.861 188.507 271.932 201.928 260.606 211.779C254.946 216.703 249.94 220.731 246.349 223.528C244.554 224.927 243.113 226.017 242.121 226.758C241.626 227.128 241.242 227.411 240.983 227.601C240.947 227.627 240.913 227.652 240.882 227.675C240.85 227.652 240.817 227.627 240.781 227.601C240.521 227.411 240.138 227.128 239.642 226.758C238.65 226.017 237.209 224.926 235.414 223.528C231.824 220.73 226.818 216.702 221.156 211.777C209.83 201.925 195.9 188.505 185.44 174.202L185.036 174.497M168.874 128.243L168.374 128.242C168.374 141.139 174.022 159.439 185.036 174.497M168.874 128.243C168.874 141.022 174.481 159.22 185.44 174.202L185.036 174.497M168.874 128.243L185.036 174.497M239.096 175.644L230.997 126.989C230.997 126.987 230.997 126.986 230.997 126.985C230.887 126.276 230.535 125.627 230 125.148C229.465 124.668 228.779 124.39 228.061 124.36C227.343 124.33 226.636 124.55 226.063 124.983C225.489 125.416 225.083 126.035 224.915 126.734L224.915 126.734L224.913 126.745L216.419 166.007H207.218C206.805 165.991 206.393 166.058 206.007 166.204C205.616 166.351 205.26 166.576 204.959 166.864C204.658 167.153 204.418 167.5 204.254 167.883C204.091 168.267 204.006 168.68 204.006 169.097C204.006 169.514 204.091 169.927 204.254 170.31C204.418 170.694 204.658 171.041 204.959 171.329C205.26 171.618 205.616 171.843 206.007 171.99C206.393 172.136 206.805 172.203 207.218 172.187H218.862H218.863L239.096 175.644ZM239.096 175.644L245.692 152.634C245.692 152.634 245.692 152.633 245.692 152.633C245.872 152 246.251 151.442 246.774 151.043C247.297 150.643 247.935 150.423 248.593 150.415L248.599 150.415L248.65 150.415H248.65C249.3 150.415 249.934 150.621 250.46 151.003C250.987 151.384 251.379 151.921 251.582 152.538L239.096 175.644ZM227.376 142.968L235.222 190.155L227.376 142.968ZM256.064 166.021L251.583 152.54L235.222 190.157C235.336 190.85 235.684 191.483 236.208 191.95C236.732 192.418 237.401 192.692 238.103 192.726L238.115 192.727H238.127H238.289H238.29C238.961 192.726 239.614 192.507 240.151 192.103C240.687 191.699 241.078 191.132 241.265 190.487L241.265 190.486L248.861 163.943L250.893 170.064L250.893 170.066C251.1 170.681 251.494 171.216 252.02 171.596C252.546 171.976 253.178 172.183 253.827 172.187H253.83H261.767C262.384 173.616 263.391 174.845 264.676 175.732C265.987 176.637 267.528 177.146 269.117 177.2L269.134 177.223H269.384C270.908 177.223 272.403 176.802 273.703 176.006C275.003 175.21 276.058 174.071 276.751 172.713C277.445 171.356 277.749 169.833 277.632 168.313C277.515 166.794 276.979 165.336 276.086 164.101C275.192 162.866 273.975 161.902 272.568 161.315C271.161 160.729 269.62 160.542 268.113 160.776C266.607 161.01 265.195 161.656 264.032 162.642C262.963 163.55 262.143 164.713 261.648 166.021H256.064Z" fill="url(#paint6_linear_8_480)" stroke="#C63E3E"/>
</g>
<defs>
<filter id="filter0_di_8_480" x="13" y="-2" width="88" height="88" filterUnits="userSpaceOnUse" color-interpolation-filters="sRGB">
<feFlood flood-opacity="0" result="BackgroundImageFix"/>
<feColorMatrix in="SourceAlpha" type="matrix" values="0 0 0 0 0 0 0 0 0 0 0 0 0 0 0 0 0 0 127 0" result="hardAlpha"/>
<feOffset dy="4"/>
<feGaussianBlur stdDeviation="9.5"/>
<feComposite in2="hardAlpha" operator="out"/>
<feColorMatrix type="matrix" values="0 0 0 0 0.0862745 0 0 0 0 0.470588 0 0 0 0 0.94902 0 0 0 0.2 0"/>
<feBlend mode="normal" in2="BackgroundImageFix" result="effect1_dropShadow_8_480"/>
<feBlend mode="normal" in="SourceGraphic" in2="effect1_dropShadow_8_480" result="shape"/>
<feColorMatrix in="SourceAlpha" type="matrix" values="0 0 0 0 0 0 0 0 0 0 0 0 0 0 0 0 0 0 127 0" result="hardAlpha"/>
<feOffset dy="4"/>
<feGaussianBlur stdDeviation="2"/>
<feComposite in2="hardAlpha" operator="arithmetic" k2="-1" k3="1"/>
<feColorMatrix type="matrix" values="0 0 0 0 0 0 0 0 0 0 0 0 0 0 0 0 0 0 0.12 0"/>
<feBlend mode="normal" in2="shape" result="effect2_innerShadow_8_480"/>
</filter>
<linearGradient id="paint0_linear_8_480" x1="323.063" y1="169.877" x2="227.369" y2="349.805" gradientUnits="userSpaceOnUse">
<stop stop-color="#3A8EF6"/>
<stop offset="1" stop-color="#6F3AFA"/>
</linearGradient>
<linearGradient id="paint1_linear_8_480" x1="390.226" y1="228.465" x2="411.841" y2="248.441" gradientUnits="userSpaceOnUse">
<stop stop-color="#3A8EF6"/>
<stop offset="1" stop-color="#6F3AFA"/>
</linearGradient>
<linearGradient id="paint2_linear_8_480" x1="328.368" y1="239.836" x2="327.511" y2="241.199" gradientUnits="userSpaceOnUse">
<stop stop-color="#3A8EF6"/>
<stop offset="1" stop-color="#6F3AFA"/>
</linearGradient>
<linearGradient id="paint3_linear_8_480" x1="-0.817365" y1="-9.60785" x2="23.2718" y2="-8.49711" gradientUnits="userSpaceOnUse">
<stop stop-color="#3A8EF6"/>
<stop offset="1" stop-color="#6F3AFA"/>
</linearGradient>
<linearGradient id="paint4_linear_8_480" x1="321.516" y1="126.201" x2="168.046" y2="163.304" gradientUnits="userSpaceOnUse">
<stop stop-color="#3A8EF6"/>
<stop offset="1" stop-color="#6F3AFA"/>
</linearGradient>
<linearGradient id="paint5_linear_8_480" x1="28.1078" y1="-6.60785" x2="141.747" y2="5.61841" gradientUnits="userSpaceOnUse">
<stop stop-color="#3A8EF6"/>
<stop offset="1" stop-color="#6F3AFA"/>
</linearGradient>
<linearGradient id="paint6_linear_8_480" x1="240.879" y1="88.8462" x2="240.879" y2="228.293" gradientUnits="userSpaceOnUse">
<stop stop-color="#F63A3A"/>
<stop offset="1" stop-color="#CC1111"/>
</linearGradient>
<clipPath id="clip0_8_480">
<rect width="512.468" height="363" fill="white"/>
</clipPath>
</defs>
</svg>
